<svg width="140" height="42" viewBox="0 0 140 42" fill="none" xmlns="http://www.w3.org/2000/svg">
<path d="M119.727 19.918C119.727 18.98 119.727 18.0425 119.727 17.1049C116.721 17.1049 112.683 17.1049 109.677 17.1049V14.2697C109.677 13.1149 110.946 12.5277 111.953 12.5199H120.516C121.025 11.5811 121.533 10.6416 122.044 9.70605C118.689 9.70605 115.315 9.70605 111.953 9.70605C109.685 9.71721 106.889 11.0376 106.864 13.6206V23.0854C106.889 25.6685 109.687 26.986 111.953 27C115.315 27 118.677 27 122.04 27L120.541 24.1869H111.953C110.942 24.1869 109.677 23.5802 109.677 22.4364V19.918C112.683 19.918 116.721 19.918 119.727 19.918ZM59.2268 37.6874H59.9258L60.0088 36.8085H62.5694V37.6874H63.2684L63.3791 36.0887H62.8601V33.1544H60.0296V33.6043C60.0296 34.6286 59.9258 35.4797 59.6212 36.0887H59.2268V37.6874ZM60.4794 36.0887C60.6939 35.6389 60.8186 35.023 60.8186 34.3586V33.8742H62.0227V36.0887H60.4794ZM64.0781 36.8085H65.9743C66.8048 36.8085 67.3238 36.4348 67.3238 35.8188C67.3238 35.2998 67.0124 35.0299 66.5694 34.9054C66.881 34.767 67.1578 34.5317 67.1578 34.068C67.1578 33.5074 66.6802 33.1544 65.9536 33.1544H64.0781V36.8085ZM64.9016 36.1441V35.2306H65.8083C66.2581 35.2306 66.4727 35.4106 66.4727 35.6735C66.4727 35.9573 66.2581 36.1441 65.8498 36.1441H64.9016ZM64.9016 34.6631V33.798H65.7736C66.1474 33.798 66.3065 33.978 66.3065 34.2132C66.3065 34.4763 66.1127 34.6631 65.7598 34.6631H64.9016ZM69.8361 36.8915C70.5075 36.8915 70.9849 36.6217 71.331 36.2064L70.8395 35.7704C70.549 36.0542 70.2583 36.2064 69.85 36.2064C69.3101 36.2064 68.8879 35.8742 68.798 35.2791H71.4832C71.4902 35.2376 71.497 35.0992 71.497 35.0438C71.497 33.9918 70.9088 33.0783 69.7461 33.0783C68.7011 33.0783 67.9606 33.9364 67.9606 34.9815C67.9606 36.1234 68.7773 36.8915 69.8361 36.8915ZM68.791 34.7255C68.8673 34.158 69.2271 33.7634 69.7392 33.7634C70.2928 33.7634 70.6112 34.1856 70.6666 34.7255H68.791ZM72.3414 37.9158H73.1788V36.241C73.4348 36.5802 73.8155 36.8846 74.4175 36.8846C75.2896 36.8846 76.1201 36.1995 76.1201 34.9884C76.1201 33.7634 75.2827 33.0783 74.4175 33.0783C73.8294 33.0783 73.4487 33.3828 73.1788 33.7634V33.1544H72.3414V37.9158ZM74.2238 36.158C73.6564 36.158 73.158 35.6943 73.158 34.9884C73.158 34.2755 73.6564 33.8049 74.2238 33.8049C74.7913 33.8049 75.2688 34.2686 75.2688 34.9745C75.2688 35.7082 74.7982 36.158 74.2238 36.158ZM76.9783 36.8085H77.8157V35.3345H79.4281V36.8085H80.2655V33.1544H79.4281V34.6354H77.8157V33.1544H76.9783V36.8085ZM81.3175 36.8085H82.9853C83.8435 36.8085 84.3763 36.3449 84.3763 35.5905C84.3763 34.7946 83.7466 34.4348 82.923 34.4348H82.1549V33.1544H81.3175V36.8085ZM82.1549 36.1304V35.0853H82.8608C83.2899 35.0853 83.5389 35.2652 83.5389 35.5905C83.5389 35.9434 83.2967 36.1304 82.8745 36.1304H82.1549ZM84.9299 36.8085H85.7675V33.1544H84.9299V36.8085ZM88.4941 36.8915C89.1655 36.8915 89.6429 36.6217 89.989 36.2064L89.4975 35.7704C89.207 36.0542 88.9163 36.2064 88.508 36.2064C87.9681 36.2064 87.5459 35.8742 87.456 35.2791H90.1413C90.1482 35.2376 90.155 35.0992 90.155 35.0438C90.155 33.9918 89.5668 33.0783 88.4042 33.0783C87.3591 33.0783 86.6186 33.9364 86.6186 34.9815C86.6186 36.1234 87.4353 36.8915 88.4941 36.8915ZM87.4491 34.7255C87.5253 34.158 87.8851 33.7634 88.3972 33.7634C88.9508 33.7634 89.2691 34.1856 89.3245 34.7255H87.4491ZM93.8577 36.8085H94.702V33.8742H95.8785V33.1544H92.6812V33.8742H93.8577V36.8085ZM98.2177 36.8915C98.8891 36.8915 99.3665 36.6217 99.7126 36.2064L99.2211 35.7704C98.9306 36.0542 98.6399 36.2064 98.2316 36.2064C97.6917 36.2064 97.2696 35.8742 97.1796 35.2791H99.8648C99.8718 35.2376 99.8786 35.0992 99.8786 35.0438C99.8786 33.9918 99.2904 33.0783 98.1278 33.0783C97.0827 33.0783 96.3422 33.9364 96.3422 34.9815C96.3422 36.1234 97.1589 36.8915 98.2177 36.8915ZM97.1726 34.7255C97.2489 34.158 97.6087 33.7634 98.1208 33.7634C98.6744 33.7634 98.9928 34.1856 99.0481 34.7255H97.1726ZM100.405 36.8085H101.297L102.19 35.5282L103.09 36.8085H104.003L102.654 34.933L103.948 33.1544H103.055L102.211 34.3586L101.367 33.1544H100.453L101.747 34.9538L100.405 36.8085ZM104.737 36.8085H105.574V35.3345H107.187V36.8085H108.024V33.1544H107.187V34.6354H105.574V33.1544H104.737V36.8085ZM110.813 36.8915C111.941 36.8915 112.772 36.0265 112.772 34.9884C112.772 33.9296 111.948 33.0783 110.827 33.0783C109.706 33.0783 108.875 33.9433 108.875 34.9884C108.875 36.0403 109.699 36.8915 110.813 36.8915ZM110.827 36.1649C110.177 36.1649 109.713 35.625 109.713 34.9884C109.713 34.3379 110.142 33.8119 110.813 33.8119C111.471 33.8119 111.934 34.3448 111.934 34.9884C111.934 35.632 111.505 36.1649 110.827 36.1649ZM113.595 36.85C114.405 36.85 114.903 36.5248 114.903 33.8742H116.045V36.8085H116.883V33.1544H114.121C114.121 35.9366 113.831 36.1441 113.408 36.1441C113.353 36.1441 113.222 36.1304 113.166 36.1165L113.104 36.8016C113.229 36.8224 113.464 36.85 113.595 36.85ZM119.672 36.8915C120.8 36.8915 121.63 36.0265 121.63 34.9884C121.63 33.9296 120.807 33.0783 119.686 33.0783C118.564 33.0783 117.734 33.9433 117.734 34.9884C117.734 36.0403 118.557 36.8915 119.672 36.8915ZM119.686 36.1649C119.035 36.1649 118.571 35.625 118.571 34.9884C118.571 34.3379 119 33.8119 119.672 33.8119C120.329 33.8119 120.793 34.3448 120.793 34.9884C120.793 35.632 120.364 36.1649 119.686 36.1649ZM122.482 36.8085H123.319V33.8742H125.07V33.1544H122.482V36.8085ZM125.734 36.8085H126.523L128.26 34.3724V36.8085H129.07V33.1544H128.281C127.7 33.9711 127.125 34.7877 126.551 35.6044V33.1544H125.734V36.8085ZM130.122 36.8085H130.911L132.648 34.3724V36.8085H133.457V33.1544H132.669C132.087 33.9711 131.513 34.7877 130.938 35.6044V33.1544H130.122V36.8085ZM97.9141 27C97.9141 22.1734 97.9141 17.3465 97.9141 12.5199C100.179 12.5199 102.444 12.5199 104.708 12.5199C104.708 11.582 104.708 10.6436 104.708 9.70605C99.2708 9.70605 93.833 9.70605 88.3954 9.70605C88.3954 10.6436 88.3954 11.582 88.3954 12.5199H95.1012V27C96.0391 27 96.9767 27 97.9141 27ZM133.206 27C133.206 22.1734 133.206 17.3465 133.206 12.5199C135.471 12.5199 137.735 12.5199 140 12.5199C140 11.582 140 10.6436 140 9.70605C134.562 9.70605 129.124 9.70605 123.686 9.70605C123.686 10.6436 123.686 11.582 123.686 12.5199H130.392V27C131.33 27 132.268 27 133.206 27ZM85.8222 12.5199C85.8222 11.582 85.8222 10.6436 85.8222 9.70605H75.1653C73.0508 9.70605 70.0766 10.606 70.0766 13.183V16.4459C70.0766 17.2875 70.966 18.0054 71.7226 18.1967L83.2182 21.1443C83.4679 21.2074 83.7564 21.4127 83.7564 21.697V22.4364C83.7564 23.582 82.5568 24.1869 81.541 24.1869C77.7194 24.1869 73.8981 24.1869 70.0766 24.1869C70.0766 25.1245 70.0766 26.0624 70.0766 27H81.541C83.7646 26.9856 86.4511 25.8127 86.4511 23.2465V20.3465C86.4511 19.5055 85.6677 18.7723 84.8933 18.574L73.399 15.649C73.1341 15.5822 72.8608 15.3688 72.8608 15.0737V14.1085C72.8608 12.9588 74.2149 12.5199 75.1653 12.5199C78.7176 12.5199 82.2699 12.5199 85.8222 12.5199ZM65.5481 19.918C65.5481 18.98 65.5481 18.0425 65.5481 17.1049C62.5422 17.1049 58.5044 17.1049 55.4981 17.1049V14.2697C55.4981 13.1149 56.7669 12.5277 57.7741 12.5199H66.3373C66.8465 11.5811 67.3539 10.6416 67.8649 9.70605C64.5108 9.70605 61.1361 9.70605 57.7741 9.70605C55.5064 9.71721 52.7098 11.0376 52.6851 13.6206V23.0854C52.7098 25.6685 55.5081 26.986 57.7741 27C61.1365 27 64.4984 27 67.8607 27L66.3619 24.1869H57.7741C56.7636 24.1869 55.4981 23.5802 55.4981 22.4364V19.918C58.504 19.918 62.5422 19.918 65.5481 19.918Z" fill="#4F4F4E"/>
<path d="M41.4146 0C41.4146 13.8052 41.4146 27.6093 41.4146 41.4146C27.6093 41.4146 13.805 41.4146 0 41.4146C0 27.6093 0 13.8052 0 0C13.805 0 27.6093 0 41.4146 0ZM10.3137 9.88379H31.1009L28.3028 15.0366H10.3137V9.88379ZM26.8812 18.1999H10.3137V23.3516H26.8821L26.8812 18.1999ZM10.3137 26.378H28.3557L31.1009 31.5307H10.3137V26.378ZM36.2626 5.15182H5.15168V36.2626H36.2626V5.15182Z" fill="url(#paint0_linear)"/>
<defs>
<linearGradient id="paint0_linear" x1="30.8962" y1="38.734" x2="10.5181" y2="2.68023" gradientUnits="userSpaceOnUse">
<stop stop-color="#057848"/>
<stop offset="1" stop-color="#51AE3A"/>
</linearGradient>
</defs>
</svg>
