<?xml version="1.0" encoding="UTF-8"?>
<!DOCTYPE svg PUBLIC "-//W3C//DTD SVG 1.1//EN" "http://www.w3.org/Graphics/SVG/1.1/DTD/svg11.dtd">
<!-- Creator: CorelDRAW X7 -->
<svg xmlns="http://www.w3.org/2000/svg" xml:space="preserve" width="42.3332mm" height="42.3332mm" version="1.1" style="shape-rendering:geometricPrecision; text-rendering:geometricPrecision; image-rendering:optimizeQuality; fill-rule:evenodd; clip-rule:evenodd"
viewBox="0 0 7710 7710"
 xmlns:xlink="http://www.w3.org/1999/xlink">
 <defs>
  <style type="text/css">
   <![CDATA[
    .fil0 {fill:none}
    .fil1 {fill:#000}
   ]]>
  </style>
 </defs>
 <g id="Слой_x0020_1">
  <metadata id="CorelCorpID_0Corel-Layer"/>
  <rect class="fil0" width="7710" height="7710"/>
  <g>
   <path class="fil1" d="M4616 1263l-1576 0 0 3198 1576 0c0,-1868 0,-1273 0,-3198zm1951 4014c39,0 75,16 100,40 26,25 41,59 41,97 0,37 -15,71 -41,96 -25,25 -61,40 -100,40 -39,0 -74,-15 -100,-40 -25,-25 -41,-59 -41,-96 0,-38 16,-72 41,-97 26,-24 61,-40 100,-40zm-53 59c33,0 86,-10 104,26 9,17 6,42 -6,57 -5,7 -13,13 -23,16 10,15 20,34 39,34l-3 18c-17,0 -31,1 -44,-10 -10,-9 -20,-26 -26,-37l-10 0 0 47c-10,0 -21,0 -31,0l0 -151zm31 25l0 59c18,0 45,-1 45,-29 0,-24 -14,-30 -45,-30zm102 -24c-21,-20 -49,-32 -80,-32 -31,0 -59,12 -79,32 -21,20 -33,47 -33,77 0,30 12,57 33,77 20,19 48,31 79,31 31,0 59,-12 80,-31 20,-20 33,-47 33,-77 0,-30 -13,-57 -33,-77zm-5023 1052l134 0 0 0c13,0 25,1 37,2 12,2 24,4 36,7l0 0c12,2 23,6 33,10 11,5 21,10 31,17l0 0c9,6 18,14 25,23 8,8 15,18 20,28 6,11 11,22 13,35l0 0c3,13 5,27 5,41 0,15 -2,30 -4,43 -3,14 -7,27 -13,39l0 0c-6,12 -12,23 -20,33l0 0c-7,10 -15,19 -25,27 -9,9 -19,16 -30,22 -11,6 -23,11 -35,16l0 0c-12,4 -25,7 -38,9 -13,2 -26,3 -39,3l-130 0 -12 0 -1 -12 -1 -15 -1 -14 13 -1c5,0 9,-1 12,-1 3,0 6,-1 9,-2l0 0c2,0 3,-1 4,-1l1 0c0,-1 1,-1 2,-2l0 0c0,0 1,-1 1,-2l0 0c0,-1 1,-2 1,-3l0 0c1,-2 1,-5 1,-8l0 0c0,-2 0,-6 0,-10l0 -224c0,-3 0,-5 0,-7 0,-2 0,-3 -1,-4l0 -1c0,0 0,0 0,-1l-1 0 0 0c0,0 -1,-1 -2,-1 -1,-1 -3,-1 -5,-2 -3,0 -6,0 -10,-1l0 0c-4,0 -8,0 -12,-1l-15 0 2 -14 1 -15 1 -13 13 0zm1220 0c13,0 25,1 37,3 12,2 24,5 35,10l0 0c11,4 21,9 31,14 9,6 18,13 26,21 8,7 15,16 21,25 6,9 12,19 16,30l0 0c5,11 8,22 10,34 2,12 3,25 3,37 0,13 -1,26 -3,38l0 0c-2,12 -5,23 -10,34l0 0c-4,11 -9,22 -15,31l0 0c-6,10 -13,19 -21,27 -8,8 -17,15 -26,22l0 0c-10,6 -20,11 -31,16l0 0c-11,4 -23,8 -35,10 -12,2 -25,3 -38,3 -12,0 -25,-1 -37,-3 -12,-2 -23,-5 -34,-9l0 0c-11,-4 -21,-9 -31,-15 -9,-6 -18,-13 -26,-20 -8,-8 -15,-16 -22,-26 -6,-9 -11,-19 -15,-29l0 0c-5,-11 -8,-22 -10,-35 -3,-12 -4,-24 -4,-37 0,-13 1,-25 4,-37 2,-12 5,-24 9,-35l0 0c5,-11 10,-21 16,-31l0 0c6,-9 13,-18 21,-26 8,-8 17,-16 26,-22 10,-6 20,-12 31,-16l0 0c11,-5 22,-8 34,-10 13,-2 25,-4 38,-4zm-2 45c-14,0 -27,2 -39,7l0 0c-7,2 -12,5 -18,8l0 0c-5,4 -10,8 -15,12 -4,5 -9,10 -12,17l0 0c-4,6 -8,13 -11,21l0 0c-3,8 -5,16 -6,26 -2,10 -2,21 -2,33 0,14 0,26 2,38 2,11 4,22 8,31 3,9 7,17 11,24 5,8 9,14 14,19 5,5 11,10 17,14 5,3 11,6 17,8 6,3 13,5 19,6 7,1 13,1 19,1 7,0 14,0 21,-1 6,-1 13,-3 19,-5l0 0c6,-2 12,-5 17,-9 6,-3 11,-7 15,-12l0 0c5,-4 9,-10 13,-16 4,-6 7,-13 10,-21l0 0c3,-8 5,-17 7,-27 1,-9 2,-20 2,-32 0,-14 -1,-27 -2,-38 -2,-12 -5,-22 -8,-31l0 0c-3,-9 -7,-17 -12,-25 -4,-7 -9,-13 -14,-19 -5,-5 -10,-9 -16,-13l0 0c-5,-4 -11,-7 -17,-9l0 0c-7,-2 -13,-4 -20,-5l0 0c-6,-1 -12,-2 -19,-2zm1068 -45c13,0 25,1 37,3 12,2 24,5 35,10l0 0c11,4 21,9 31,14 9,6 18,13 26,21 8,7 15,16 21,25 6,9 12,19 16,30l0 0c4,11 8,22 10,34 2,12 3,25 3,37 0,13 -1,26 -3,38 -2,12 -5,23 -10,34l0 0c-4,11 -9,22 -15,31 -7,10 -14,19 -22,27 -7,8 -16,15 -26,22l0 0c-9,6 -19,11 -30,16l0 0c-11,4 -23,8 -35,10 -12,2 -25,3 -38,3 -13,0 -25,-1 -37,-3 -12,-2 -23,-5 -34,-9 -11,-4 -22,-9 -31,-15 -10,-6 -18,-13 -26,-20l0 0c-8,-8 -16,-16 -22,-26l0 0c-6,-9 -11,-19 -16,-29l0 -1c-4,-10 -8,-22 -10,-34 -2,-12 -3,-24 -3,-37 0,-13 1,-25 3,-37l0 0c2,-12 6,-24 10,-35l0 0c4,-11 10,-21 16,-31 6,-9 13,-18 21,-26 8,-9 17,-16 26,-22l0 0c9,-6 20,-12 31,-16l0 0c10,-5 22,-8 34,-10l0 0c12,-2 25,-4 38,-4zm-2 45c-14,0 -27,2 -40,7l0 0c-6,2 -12,5 -17,8l0 0c-5,4 -10,8 -15,12 -5,5 -9,10 -13,17 -4,6 -7,13 -10,21l0 0c-3,8 -5,16 -6,26 -2,10 -3,21 -3,33 0,14 1,26 3,38 2,11 4,22 7,31l0 0c4,9 8,17 12,24 4,7 9,14 14,19l0 0c5,5 10,10 16,14l0 0c6,3 12,6 18,8 6,3 13,5 19,6 6,1 13,1 19,1 7,0 14,0 21,-1 6,-1 13,-3 19,-5l0 0c6,-2 12,-5 17,-9 6,-3 11,-7 15,-12 5,-4 9,-10 13,-16 4,-7 7,-14 10,-21l0 0c3,-8 5,-17 7,-27 1,-9 2,-20 2,-32 0,-14 -1,-27 -3,-38 -1,-12 -4,-22 -7,-31l0 0c-4,-9 -7,-17 -12,-25 -4,-7 -9,-13 -14,-19 -5,-5 -10,-9 -16,-13 -5,-4 -11,-7 -17,-9l0 0c-7,-2 -14,-4 -20,-5l0 0c-6,-1 -13,-2 -19,-2zm-2189 233l0 9 1 8 0 0c0,2 0,3 1,5l0 0c0,1 1,2 1,3l0 0c1,0 2,1 3,2l0 0c1,1 3,1 5,2l0 0c2,1 5,2 9,2l0 0c4,0 9,1 14,1 10,0 20,-1 29,-3 9,-1 18,-4 25,-7 8,-3 16,-6 23,-11l0 0c6,-4 13,-9 18,-15l0 0c6,-6 11,-12 15,-19l0 0c5,-7 9,-15 12,-24 3,-8 5,-17 7,-26 2,-10 2,-20 2,-31 0,-11 0,-22 -2,-31 -2,-10 -4,-18 -7,-26l0 0c-4,-8 -8,-16 -12,-22l0 0c-4,-7 -10,-13 -15,-18 -6,-5 -12,-10 -19,-14l0 0c-6,-4 -14,-7 -21,-10l0 0c-8,-3 -17,-5 -25,-6 -9,-1 -18,-2 -28,-2 -3,0 -6,0 -9,0 -3,0 -6,1 -8,1l0 0c-2,0 -5,1 -8,1l0 0c-2,1 -4,2 -5,2l0 0c-2,1 -4,1 -5,2l0 0 -1 0 0 227zm-2 -226l0 0 0 0 0 0zm3187 247c0,3 0,5 0,6l0 1c0,1 1,3 1,4l0 1 0 0 1 0 0 1c0,0 1,0 2,1 1,0 3,1 5,1l0 0c3,1 6,1 9,1l0 0c4,1 8,1 13,1l14 0 -1 14 0 12 -1 13 -13 0 -122 0 -13 0 0 -13 -1 -11 0 -13 13 -1c4,0 7,-1 10,-1 3,-1 6,-1 8,-2 2,0 3,-1 4,-1 1,-1 2,-1 2,-2l0 0c1,-1 1,-1 1,-2l0 0c1,-1 1,-2 1,-3l0 -1c1,-2 1,-4 1,-7l0 0c0,-3 1,-6 1,-11l0 -228c0,-3 -1,-5 -1,-6 0,-2 0,-3 0,-4l0 0 -1 -1 0 -1 -1 0c0,-1 0,-1 -1,-1l0 0c-1,-1 -3,-1 -5,-1 -2,-1 -5,-1 -9,-2 -3,0 -7,0 -11,-1l-14 0 1 -14 1 -12 0 -13 13 0 13 1 7 0 8 0 0 0 12 0 5 0 9 0 8 0 0 0c4,0 9,0 12,0 4,-1 9,-1 13,-2l0 0c5,0 10,-1 15,-1 5,0 10,-1 14,-1 7,0 14,1 21,1l0 0c7,1 14,2 22,3l0 0c7,1 14,3 21,5l0 0c7,2 13,5 19,8l0 0c6,4 12,8 17,12 6,5 10,10 14,16l0 0c4,7 8,14 10,21 2,8 3,16 3,25 0,6 -1,11 -2,17 -1,6 -2,11 -4,16l0 0c-2,6 -4,11 -7,16l0 0c-2,4 -5,9 -9,13l0 0c-3,4 -6,8 -10,12l-1 0c-3,4 -8,7 -12,11l0 0c-4,3 -9,6 -14,8l0 0 -1 1 3 7c4,7 8,13 11,19l0 0 10 18 9 16 8 15 8 12 0 0 6 10 5 8c2,2 4,5 6,7l0 0c1,2 3,4 4,5l0 0c1,1 2,3 3,3l1 0c0,1 1,2 2,2l1 0c1,1 2,2 3,2l0 0c2,0 4,1 6,1l0 0c2,1 4,1 7,1 3,1 7,1 10,2l12 0 1 12 1 16 0 14 -14 0 -78 0 -8 0 -4 -7 0 -1 0 0c-2,-4 -7,-13 -12,-23l0 0 -7 -15 -9 -17 0 0 -11 -18 -11 -20 0 0c-3,-7 -7,-14 -12,-22 -4,-7 -8,-14 -12,-21l0 -1 0 0 -3 -4 -1 0 0 -1 -1 0c-1,-1 -2,-1 -2,-1 -1,0 -2,0 -4,0l0 0c-1,-1 -3,-1 -6,-1l-10 0 -2 0 0 96zm150 -9l0 0 0 0zm-150 -130l8 0c23,0 40,-5 52,-15l0 0c6,-4 10,-10 12,-18 3,-8 5,-18 5,-30 0,-10 -1,-18 -4,-24 -3,-6 -6,-11 -11,-15 -6,-4 -12,-7 -20,-9 -8,-3 -17,-4 -27,-4 -3,0 -5,0 -7,0l0 1c-2,0 -4,0 -5,0l0 1c-1,0 -1,0 -2,0l0 1 0 0 0 1 0 0 -1 6 0 0 0 5 0 0 0 100zm951 80c2,5 4,10 7,16l0 0c2,5 4,10 7,15l0 0c2,4 4,8 7,12 2,3 5,7 8,10l0 0c3,3 6,6 10,8 3,2 7,4 10,6l1 0c3,2 7,3 12,4 5,1 10,1 16,1 3,0 7,0 10,-1l0 0c3,0 6,-1 9,-2l0 0c3,-1 6,-3 8,-4l0 0c3,-2 5,-4 7,-6 2,-2 4,-4 6,-7 1,-2 3,-4 4,-7l0 0c1,-3 2,-6 3,-9l0 0c0,-3 1,-6 1,-10 0,-4 -1,-9 -2,-12l0 0c0,-4 -1,-7 -3,-10l0 0c-2,-3 -4,-6 -6,-9 -2,-2 -4,-5 -7,-7 -3,-3 -6,-5 -9,-7l0 0c-3,-2 -7,-4 -11,-6l-12 -6 0 0 -13 -6 0 0c-6,-3 -11,-5 -16,-7 -5,-3 -10,-6 -15,-8l0 0c-6,-3 -11,-7 -16,-10l0 0c-5,-4 -10,-7 -15,-11l0 0c-4,-5 -8,-9 -12,-14 -4,-5 -7,-10 -10,-15 -3,-6 -5,-13 -7,-19l0 -1c-1,-6 -2,-13 -2,-21 0,-8 1,-15 2,-23l0 0c2,-7 5,-14 8,-20l0 0c3,-7 7,-12 11,-18l0 0c5,-5 10,-10 16,-14l0 0c11,-9 25,-14 40,-18 14,-3 29,-4 44,-4 14,0 29,2 42,3 13,1 25,4 36,6l12 2 -1 12 -1 16 0 4 0 0 -1 9 0 0 0 8 -1 18 0 10 0 10 0 12 -12 1 -14 2 -13 1 -2 -14c-1,-10 -3,-19 -6,-27 -3,-7 -6,-13 -11,-17l0 0c-5,-4 -10,-8 -17,-10l0 0c-7,-3 -15,-4 -24,-4 -3,0 -6,0 -9,1l0 0c-3,0 -6,1 -8,2l0 0c-3,1 -5,2 -7,3l0 0c-2,2 -4,3 -6,5l0 0c-2,1 -3,3 -5,5l0 0c-1,2 -2,5 -3,7l0 0c-1,3 -2,5 -3,7 0,3 0,6 0,9 0,5 0,9 1,13 0,3 1,6 3,9 1,2 2,5 4,7 2,3 4,5 7,7l0 0c2,2 5,5 8,7 3,2 6,3 9,5l12 6 0 0c4,2 8,3 13,5l0 0c6,3 11,6 16,8l0 0c7,3 13,6 17,8l0 0c6,3 11,7 17,10 5,4 10,8 14,12l0 0c5,4 10,9 14,14 4,5 7,10 11,16l0 0c3,6 5,13 7,20 1,7 2,14 2,22 0,8 -1,16 -3,24 -1,8 -4,15 -8,22l0 0c-3,7 -8,13 -12,19l0 0c-5,6 -10,11 -16,15l-1 1c-25,18 -54,24 -84,24 -28,0 -57,-5 -83,-11l-9 -2 -1 -10c-1,-7 -2,-14 -3,-21 -1,-6 -2,-12 -3,-19l0 0c-1,-7 -2,-13 -4,-20 -1,-5 -3,-13 -5,-21l-3 -13 13 -3 14 -3 12 -3 4 11zm-1769 -1352l0 38c25,2 44,4 59,7 29,6 43,20 47,50 2,16 4,37 3,63l0 494c1,26 -1,47 -3,63 -5,31 -21,45 -52,51 -16,3 -38,6 -65,7l-8 36 325 0c79,0 151,-8 215,-25 124,-32 230,-100 288,-216 28,-55 42,-120 43,-194 -1,-102 -35,-197 -109,-268 -40,-36 -90,-63 -152,-81 -61,-17 -133,-25 -214,-25l-377 0zm-2532 0l0 0 -337 0 0 37c24,2 44,4 59,7 56,11 51,67 51,113l0 494c0,26 -1,47 -4,62 -5,31 -19,46 -50,52 -15,4 -36,7 -61,8l0 36 345 0 0 -36c-26,-1 -46,-4 -61,-8 -30,-6 -45,-21 -50,-52 -2,-15 -4,-36 -3,-62l0 -114c36,0 71,0 105,0 19,31 38,63 58,95 14,23 28,44 43,65 33,46 71,83 126,100 38,12 73,12 111,12 8,0 16,0 24,0l7 -36c-54,-1 -89,-47 -122,-85 -42,-50 -78,-106 -114,-161l-3 -4c142,-34 218,-135 219,-280 0,-79 -31,-150 -99,-192 -29,-19 -62,-32 -101,-40 -39,-8 -87,-11 -143,-11zm-111 488c0,-137 0,-274 0,-410 12,-29 64,-27 89,-27 53,0 132,13 173,48 49,42 65,105 65,167 1,71 -22,135 -80,180 -59,46 -172,42 -247,42zm1969 321l8 -36c-21,-1 -38,-5 -51,-8 -32,-10 -48,-29 -63,-58 -8,-16 -18,-38 -28,-66 -82,-213 -161,-427 -240,-641l-55 0 -264 641c-11,28 -22,50 -31,66 -9,16 -18,29 -28,37 -23,20 -58,25 -87,29l-9 36 290 0 0 -36c-32,-3 -55,-7 -69,-13 -15,-6 -22,-16 -23,-30 -1,-13 3,-32 13,-57 8,-25 16,-50 25,-75 9,-25 19,-52 29,-80l274 0c23,61 45,122 68,183 6,17 8,29 6,39 -5,26 -59,31 -79,33l0 36 314 0zm-328 -347l-233 0c39,-104 78,-207 119,-310l3 0 111 310zm3350 347l10 -36c-30,-2 -64,-7 -87,-27 -9,-10 -19,-22 -27,-39 -9,-16 -18,-38 -28,-66 -82,-213 -161,-427 -241,-641l-55 0 -264 641c-11,28 -21,50 -30,66 -9,16 -18,29 -28,37 -24,20 -58,25 -87,29l-11 36 292 0 0 -36c-32,-3 -55,-7 -70,-13 -14,-6 -22,-16 -23,-30 0,-13 4,-32 14,-57 16,-52 35,-104 54,-155l274 0c23,61 45,122 68,183 6,17 8,29 6,39 -5,26 -59,31 -80,33l0 36 313 0zm-326 -347l-234 0c40,-104 79,-207 120,-310l2 0 112 310zm-1793 -330c0,-16 0,-28 1,-38 4,-34 16,-39 49,-46 57,-10 138,-4 193,9 72,18 136,58 181,117 46,64 64,142 64,220 0,93 -25,185 -86,258 -67,79 -164,110 -266,110 -94,1 -136,-25 -136,-121l0 -509zm-542 -2336c-167,1 -334,1 -501,0l0 -60c75,-4 157,-1 171,-91 3,-23 4,-45 5,-68 0,-129 0,-258 0,-388 0,-42 -2,-75 -5,-100 -14,-90 -97,-87 -171,-92l0 -60 522 0 18 0 0 0c89,0 165,6 228,18 62,12 116,34 161,64 49,31 88,71 116,123 28,52 43,113 42,184 0,136 -28,230 -120,323 -68,68 -145,105 -230,125 -102,20 -208,22 -208,22 -9,0 -19,0 -28,0zm-140 -124c4,9 9,16 15,20 28,23 94,25 128,25l0 0c86,-4 191,-18 253,-67 93,-72 129,-173 128,-287 -1,-100 -26,-200 -104,-266 -66,-57 -192,-78 -277,-78 -36,0 -64,2 -84,6 -21,4 -36,10 -44,16 -6,5 -11,12 -15,21 0,203 0,406 0,610zm-185 222l0 85c0,41 -2,75 -6,99 -8,49 -31,74 -80,84 -24,6 -57,10 -98,13l0 57 552 0 0 -57c-41,-3 -74,-7 -98,-13 -48,-10 -72,-35 -79,-84 -5,-24 -6,-58 -6,-99l0 -85 -185 0zm412 -2c54,89 117,200 197,263 86,70 180,77 286,77 12,0 25,0 37,0l12 -58c-24,-1 -50,-5 -73,-19 -80,-47 -186,-196 -239,-274l-8 -11c-24,10 -125,19 -212,22zm938 -2088l0 3562 -1940 0 0 -3562 1940 0zm-77 77l-1787 0 0 3408 1787 0 0 -3408z"/>
  </g>
 </g>
</svg>
