<svg width="26" height="24" viewBox="0 0 26 24" fill="none" xmlns="http://www.w3.org/2000/svg">
<path d="M2.55556 0.5C1.13722 0.5 0 1.63722 0 3.05556V8.16667C0 9.585 1.13722 10.7222 2.55556 10.7222H7.66667C9.085 10.7222 10.2222 9.585 10.2222 8.16667V3.05556C10.2222 1.63722 9.085 0.5 7.66667 0.5H2.55556ZM7.92222 2.41667L9.27667 3.75833L4.17833 8.80556L0.945556 5.54722L2.31278 4.20556L4.19111 6.10944L7.92222 2.41667ZM2.55556 13.2778C1.13722 13.2778 0 14.415 0 15.8333V20.9444C0 22.3628 1.13722 23.5 2.55556 23.5H7.66667C9.085 23.5 10.2222 22.3628 10.2222 20.9444V15.8333C10.2222 14.415 9.085 13.2778 7.66667 13.2778H2.55556ZM2.55556 15.8333H7.66667V20.9444H2.55556V15.8333ZM12.7778 3.05556H25.5556V5.61111H12.7778V3.05556ZM12.7778 20.9444V18.3889H25.5556V20.9444H12.7778ZM12.7778 10.7222H25.5556V13.2778H12.7778V10.7222Z" fill="white"/>
</svg>
