<svg width="100" height="112" viewBox="0 0 100 112" fill="none" xmlns="http://www.w3.org/2000/svg">
<circle cx="50" cy="74" r="36" stroke="#F8DE4A" stroke-width="4"/>
<path d="M45 82.7222V66.2778C45 65.1874 45.4214 64.1418 46.1716 63.3708C46.9217 62.5998 47.9391 62.1667 49 62.1667H67V60.1111C67 57.85 65.2 56 63 56H35C33.9391 56 32.9217 56.4331 32.1716 57.2041C31.4214 57.9751 31 59.0208 31 60.1111V88.8889C31 89.9792 31.4214 91.0249 32.1716 91.7959C32.9217 92.5669 33.9391 93 35 93H63C65.2 93 67 91.15 67 88.8889V86.8333H49C47.9391 86.8333 46.9217 86.4002 46.1716 85.6292C45.4214 84.8582 45 83.8126 45 82.7222ZM51 66.2778C49.9 66.2778 49 67.2028 49 68.3333V80.6667C49 81.7972 49.9 82.7222 51 82.7222H69V66.2778H51ZM57 77.5833C55.34 77.5833 54 76.2061 54 74.5C54 72.7939 55.34 71.4167 57 71.4167C58.66 71.4167 60 72.7939 60 74.5C60 76.2061 58.66 77.5833 57 77.5833Z" fill="#F8DE4A"/>
</svg>
