<svg width="26" height="23" viewBox="0 0 26 23" fill="none" xmlns="http://www.w3.org/2000/svg">
<path d="M0.555542 18.1836V22.9679H5.76317L21.1222 8.85733L15.9146 4.073L0.555542 18.1836ZM25.1494 5.15745C25.2782 5.03941 25.3803 4.89922 25.45 4.74488C25.5197 4.59053 25.5555 4.42508 25.5555 4.25799C25.5555 4.0909 25.5197 3.92545 25.45 3.77111C25.3803 3.61676 25.2782 3.47657 25.1494 3.35853L21.8999 0.373107C21.7714 0.254834 21.6188 0.161 21.4508 0.0969772C21.2828 0.0329545 21.1027 0 20.9208 0C20.739 0 20.5589 0.0329545 20.3909 0.0969772C20.2229 0.161 20.0703 0.254834 19.9418 0.373107L17.4005 2.70786L22.6081 7.4922L25.1494 5.15745Z" fill="#292929"/>
</svg>
