<svg width="26" height="22" viewBox="0 0 26 22" fill="none" xmlns="http://www.w3.org/2000/svg">
<path d="M2.55556 0C1.13722 0 0 1.04479 0 2.34783V7.0435C0 8.34655 1.13722 9.39134 2.55556 9.39134H7.66667C9.085 9.39134 10.2222 8.34655 10.2222 7.0435V2.34783C10.2222 1.04479 9.085 0 7.66667 0H2.55556ZM7.92222 1.76088L9.27667 2.99349L4.17833 7.63046L0.945556 4.63697L2.31278 3.40436L4.19111 5.1535L7.92222 1.76088ZM2.55556 11.7392C1.13722 11.7392 0 12.784 0 14.087V18.7827C0 20.0857 1.13722 21.1305 2.55556 21.1305H7.66667C9.085 21.1305 10.2222 20.0857 10.2222 18.7827V14.087C10.2222 12.784 9.085 11.7392 7.66667 11.7392H2.55556ZM2.55556 14.087H7.66667V18.7827H2.55556V14.087ZM12.7778 2.34783H25.5556V4.69567H12.7778V2.34783ZM12.7778 18.7827V16.4348H25.5556V18.7827H12.7778ZM12.7778 9.39134H25.5556V11.7392H12.7778V9.39134Z" fill="#292929"/>
</svg>
