<svg width="28" height="28" viewBox="0 0 28 28" fill="none" xmlns="http://www.w3.org/2000/svg">
<circle cx="14" cy="14" r="14" fill="#1D2720"/>
<path d="M18.8462 9.69231H16.7912L16.3016 8.32033C16.2678 8.22645 16.2058 8.1453 16.1242 8.08797C16.0425 8.03063 15.9451 7.99991 15.8453 8H11.2096C11.0056 8 10.8228 8.12843 10.7548 8.32033L10.2637 9.69231H8.20879C7.54093 9.69231 7 10.2332 7 10.9011V17.7912C7 18.4591 7.54093 19 8.20879 19H18.8462C19.514 19 20.0549 18.4591 20.0549 17.7912V10.9011C20.0549 10.2332 19.514 9.69231 18.8462 9.69231ZM13.5275 16.5824C12.1918 16.5824 11.1099 15.5005 11.1099 14.1648C11.1099 12.8291 12.1918 11.7473 13.5275 11.7473C14.8632 11.7473 15.9451 12.8291 15.9451 14.1648C15.9451 15.5005 14.8632 16.5824 13.5275 16.5824ZM12.0769 14.1648C12.0769 14.5495 12.2297 14.9185 12.5018 15.1905C12.7738 15.4626 13.1428 15.6154 13.5275 15.6154C13.9122 15.6154 14.2811 15.4626 14.5532 15.1905C14.8252 14.9185 14.978 14.5495 14.978 14.1648C14.978 13.7801 14.8252 13.4112 14.5532 13.1391C14.2811 12.8671 13.9122 12.7143 13.5275 12.7143C13.1428 12.7143 12.7738 12.8671 12.5018 13.1391C12.2297 13.4112 12.0769 13.7801 12.0769 14.1648Z" fill="#F8DE4A"/>
</svg>
