<svg width="31" height="25" viewBox="0 0 31 25" fill="none" xmlns="http://www.w3.org/2000/svg">
<path d="M2.64481 11.4274H15.502V13.5703H2.64481V11.4274ZM0.501953 6.07028H11.2162V8.21314H0.501953V6.07028Z" fill="#F8DE4A"/>
<path d="M30.4152 12.0767L27.2009 4.57671C27.1184 4.38393 26.9811 4.21963 26.8061 4.10421C26.631 3.98878 26.4259 3.9273 26.2162 3.92742H23.002V1.78456C23.002 1.5004 22.8891 1.22788 22.6881 1.02695C22.4872 0.826017 22.2147 0.713135 21.9305 0.713135H4.78768V2.85599H20.8591V16.3088C20.3709 16.5923 19.9436 16.9697 19.602 17.4191C19.2603 17.8685 19.011 18.3812 18.8684 18.9274H12.1355C11.8748 17.9174 11.2546 17.0372 10.3912 16.4518C9.5279 15.8663 8.48069 15.6159 7.44589 15.7473C6.41109 15.8787 5.45975 16.3831 4.77019 17.1657C4.08063 17.9484 3.7002 18.9557 3.7002 19.9988C3.7002 21.042 4.08063 22.0493 4.77019 22.832C5.45975 23.6146 6.41109 24.119 7.44589 24.2504C8.48069 24.3818 9.5279 24.1314 10.3912 23.5459C11.2546 22.9605 11.8748 22.0803 12.1355 21.0703H18.8684C19.1015 21.9898 19.6345 22.8054 20.3832 23.388C21.1318 23.9705 22.0533 24.2868 23.002 24.2868C23.9506 24.2868 24.8721 23.9705 25.6208 23.388C26.3694 22.8054 26.9025 21.9898 27.1355 21.0703H29.4305C29.7147 21.0703 29.9872 20.9574 30.1881 20.7565C30.3891 20.5555 30.502 20.283 30.502 19.9988V12.4988C30.502 12.3537 30.4725 12.2101 30.4152 12.0767ZM8.00196 22.1417C7.57815 22.1417 7.16385 22.016 6.81146 21.7806C6.45906 21.5451 6.18441 21.2104 6.02222 20.8189C5.86003 20.4273 5.8176 19.9965 5.90028 19.5808C5.98296 19.1651 6.18705 18.7833 6.48673 18.4836C6.78642 18.1839 7.16824 17.9798 7.58391 17.8972C7.99959 17.8145 8.43044 17.8569 8.822 18.0191C9.21355 18.1813 9.54822 18.4559 9.78368 18.8083C10.0191 19.1607 10.1448 19.575 10.1448 19.9988C10.1443 20.567 9.9183 21.1117 9.51656 21.5134C9.11482 21.9152 8.57011 22.1411 8.00196 22.1417ZM23.002 6.07028H25.5091L27.8062 11.4274H23.002V6.07028ZM23.002 22.1417C22.5781 22.1417 22.1638 22.016 21.8115 21.7806C21.4591 21.5451 21.1844 21.2104 21.0222 20.8189C20.86 20.4273 20.8176 19.9965 20.9003 19.5808C20.983 19.1651 21.187 18.7833 21.4867 18.4836C21.7864 18.1839 22.1682 17.9798 22.5839 17.8972C22.9996 17.8145 23.4304 17.8569 23.822 18.0191C24.2136 18.1813 24.5482 18.4559 24.7837 18.8083C25.0191 19.1607 25.1448 19.575 25.1448 19.9988C25.1443 20.567 24.9183 21.1117 24.5166 21.5134C24.1148 21.9152 23.5701 22.1411 23.002 22.1417ZM28.3591 18.9274H27.1355C26.8995 18.0097 26.3656 17.1962 25.6176 16.6145C24.8695 16.0328 23.9496 15.7158 23.002 15.7131V13.5703H28.3591V18.9274Z" fill="#F8DE4A"/>
</svg>
