<svg width="28" height="25" viewBox="0 0 28 25" fill="none" xmlns="http://www.w3.org/2000/svg">
<path d="M17.633 21.896C17.8192 21.14 18.1916 20.6 18.6571 20.06H26.8502C27.2226 20.6 27.502 21.248 27.502 22.004V23.3C27.502 23.948 27.1295 24.38 26.5709 24.38H18.1916C17.9123 24.38 17.633 24.164 17.4468 23.948C17.2606 23.624 17.2606 23.3 17.3537 22.976L17.633 21.896Z" fill="#F8DE4A"/>
<path d="M1.43299 4.94H4.22609V4.616C4.22609 2.996 5.34333 1.7 6.73988 1.7H7.95023C7.95023 1.052 8.32264 0.619995 8.88126 0.619995H22.8468C25.4537 0.619995 27.502 2.996 27.502 6.02C27.502 8.504 26.0123 10.556 24.0571 11.204L26.0123 17.9H18.4709L17.8192 15.74H15.6778C13.9088 15.74 12.4192 14.336 12.0468 12.5L11.8606 11.42H8.88126C8.32264 11.42 7.95023 10.988 7.95023 10.34H6.73988C5.34333 10.34 4.22609 9.044 4.22609 7.424V7.1H1.43299C0.874367 7.1 0.501953 6.668 0.501953 6.02C0.501953 5.372 0.874367 4.94 1.43299 4.94ZM21.0778 5.37199L22.0088 7.53199C22.1951 7.96399 22.4744 8.18 22.8468 8.18C23.033 8.18 23.1261 8.18 23.2192 8.07199C23.6847 7.856 23.8709 7.208 23.5916 6.668L22.6606 4.508C22.4744 3.968 21.9157 3.752 21.5433 3.968C21.0778 4.292 20.8916 4.93999 21.0778 5.37199ZM17.3537 5.37199L18.2847 7.53199C18.4709 7.96399 18.7502 8.18 19.1226 8.18C19.3088 8.18 19.402 8.18 19.4951 8.07199C19.9606 7.856 20.1468 7.208 19.8675 6.668L18.9364 4.508C18.7502 3.968 18.1916 3.752 17.7261 4.07599C17.3537 4.292 17.1675 4.93999 17.3537 5.37199ZM13.9088 11.96C14.0951 12.932 14.8399 13.58 15.7709 13.58H17.2606L16.6088 11.42H13.8157L13.9088 11.96Z" fill="#F8DE4A"/>
</svg>
