<svg width="20" height="26" viewBox="0 0 20 26" fill="none" xmlns="http://www.w3.org/2000/svg">
<path d="M19.5 5.50079V24.0008C19.5 24.8318 18.831 25.5008 18 25.5008H2.00002C1.16901 25.5008 0.5 24.8318 0.5 24.0008V2.00079C0.5 1.16979 1.16901 0.500854 2.00002 0.500854H14.5" fill="#F8DE4A"/>
<path d="M2 5.00028e-05C0.900642 5.00028e-05 0 0.90075 0 2.00005V24C0 25.0994 0.900642 26 2 26H18C19.0994 26 20 25.0994 20 24V5.50005C20.0009 5.43379 19.9887 5.36793 19.964 5.30645C19.9393 5.24496 19.9026 5.18908 19.8561 5.1419C19.8096 5.09471 19.7541 5.05724 19.693 5.03167C19.6319 5.00609 19.5663 4.99285 19.5 4.99285C19.4337 4.99285 19.3681 5.00609 19.307 5.03167C19.2459 5.05724 19.1904 5.09471 19.1439 5.1419C19.0974 5.18908 19.0607 5.24496 19.036 5.30645C19.0113 5.36793 18.9991 5.43379 19 5.50005V24C19 24.5627 18.5627 25 18 25H2C1.43734 25 1 24.5627 1 24V2.00005C1 1.43745 1.43734 1.00005 2 1.00005H14.5C14.5663 1.00099 14.632 0.988746 14.6935 0.964039C14.755 0.939332 14.811 0.902651 14.8582 0.856129C14.9053 0.809607 14.9428 0.754172 14.9684 0.693043C14.994 0.631915 15.0071 0.566313 15.0071 0.50005C15.0071 0.433787 14.994 0.368185 14.9684 0.307057C14.9428 0.245928 14.9053 0.190493 14.8582 0.143971C14.811 0.0974487 14.755 0.0607676 14.6935 0.0360607C14.632 0.0113539 14.5663 -0.000887021 14.5 5.00028e-05H2Z" fill="black"/>
<path d="M14.5 0.500854V4.00079C14.5 4.83179 15.169 5.50079 16 5.50079H19.5L14.5 0.500854Z" fill="#F8DE4A"/>
<path d="M14.4922 5.85001e-05C14.3609 0.00212226 14.2358 0.0556844 14.1437 0.149228C14.0516 0.242772 14 0.368797 14 0.500058V4.00006C14 5.09946 14.9006 6.00006 16 6.00006H19.5C19.5989 6.00002 19.6955 5.97065 19.7777 5.91571C19.8599 5.86076 19.9239 5.78268 19.9618 5.69134C19.9996 5.6 20.0095 5.49949 19.9902 5.40252C19.971 5.30555 19.9234 5.21648 19.8535 5.14654L14.8535 0.146543C14.8062 0.09917 14.7498 0.0617845 14.6877 0.0366186C14.6257 0.0114527 14.5592 -0.000965092 14.4922 5.85001e-05ZM15 1.70709L18.293 5.00006H16C15.4373 5.00006 15 4.56276 15 4.00006V1.70709Z" fill="black"/>
<path fill-rule="evenodd" clip-rule="evenodd" d="M4.5081 11.0001C4.44184 10.9991 4.37606 11.0114 4.31458 11.0361C4.25309 11.0608 4.19713 11.0974 4.14995 11.144C4.10276 11.1905 4.06529 11.2459 4.03972 11.3071C4.01415 11.3682 4.00098 11.4338 4.00098 11.5001C4.00098 11.5663 4.01415 11.6319 4.03972 11.693C4.06529 11.7542 4.10276 11.8096 4.14995 11.8561C4.19713 11.9027 4.25309 11.9393 4.31458 11.964C4.37606 11.9887 4.44184 12.001 4.5081 12H11.1331H15.5003C15.5665 12.001 15.6323 11.9887 15.6938 11.964C15.7553 11.9393 15.8113 11.9027 15.8584 11.8561C15.9056 11.8096 15.9431 11.7542 15.9687 11.693C15.9942 11.6319 16.0074 11.5663 16.0074 11.5001C16.0074 11.4338 15.9942 11.3682 15.9687 11.3071C15.9431 11.2459 15.9056 11.1905 15.8584 11.144C15.8113 11.0974 15.7553 11.0608 15.6938 11.0361C15.6323 11.0114 15.5665 10.9991 15.5003 11.0001H11.1331H4.5081Z" fill="black"/>
<path fill-rule="evenodd" clip-rule="evenodd" d="M4.5081 13.0001C4.44184 12.9991 4.37606 13.0114 4.31458 13.0361C4.25309 13.0608 4.19713 13.0974 4.14995 13.144C4.10276 13.1905 4.06529 13.2459 4.03972 13.3071C4.01415 13.3682 4.00098 13.4338 4.00098 13.5001C4.00098 13.5663 4.01415 13.6319 4.03972 13.693C4.06529 13.7542 4.10276 13.8096 4.14995 13.8561C4.19713 13.9027 4.25309 13.9393 4.31458 13.964C4.37606 13.9887 4.44184 14.001 4.5081 14H11.1331H15.5003C15.5665 14.001 15.6323 13.9887 15.6938 13.964C15.7553 13.9393 15.8113 13.9027 15.8584 13.8561C15.9056 13.8096 15.9431 13.7542 15.9687 13.693C15.9942 13.6319 16.0074 13.5663 16.0074 13.5001C16.0074 13.4338 15.9942 13.3682 15.9687 13.3071C15.9431 13.2459 15.9056 13.1905 15.8584 13.144C15.8113 13.0974 15.7553 13.0608 15.6938 13.0361C15.6323 13.0114 15.5665 12.9991 15.5003 13.0001H11.1331H4.5081Z" fill="black"/>
<path fill-rule="evenodd" clip-rule="evenodd" d="M4.5081 17.0001C4.44184 16.9991 4.37606 17.0114 4.31458 17.0361C4.25309 17.0608 4.19713 17.0974 4.14995 17.144C4.10276 17.1905 4.06529 17.2459 4.03972 17.3071C4.01415 17.3682 4.00098 17.4338 4.00098 17.5001C4.00098 17.5663 4.01415 17.6319 4.03972 17.693C4.06529 17.7542 4.10276 17.8096 4.14995 17.8561C4.19713 17.9027 4.25309 17.9393 4.31458 17.964C4.37606 17.9887 4.44184 18.001 4.5081 18H8.87529H11.5003C11.5665 18.001 11.6323 17.9887 11.6938 17.964C11.7553 17.9393 11.8113 17.9027 11.8584 17.8561C11.9056 17.8096 11.9431 17.7542 11.9687 17.693C11.9942 17.6319 12.0074 17.5663 12.0074 17.5001C12.0074 17.4338 11.9942 17.3682 11.9687 17.3071C11.9431 17.2459 11.9056 17.1905 11.8584 17.144C11.8113 17.0974 11.7553 17.0608 11.6938 17.0361C11.6323 17.0114 11.5665 16.9991 11.5003 17.0001H8.87529H4.5081ZM13.5003 17.0001C13.434 16.9991 13.3682 17.0114 13.3068 17.0361C13.2453 17.0608 13.1893 17.0974 13.1421 17.144C13.095 17.1905 13.0575 17.2459 13.0319 17.3071C13.0063 17.3682 12.9932 17.4338 12.9932 17.5001C12.9932 17.5663 13.0063 17.6319 13.0319 17.693C13.0575 17.7542 13.095 17.8096 13.1421 17.8561C13.1893 17.9027 13.2453 17.9393 13.3068 17.964C13.3682 17.9887 13.434 18.001 13.5003 18C13.5665 18.001 13.6323 17.9887 13.6938 17.964C13.7553 17.9393 13.8113 17.9027 13.8584 17.8561C13.9056 17.8096 13.9431 17.7542 13.9687 17.693C13.9942 17.6319 14.0074 17.5663 14.0074 17.5001C14.0074 17.4338 13.9942 17.3682 13.9687 17.3071C13.9431 17.2459 13.9056 17.1905 13.8584 17.144C13.8113 17.0974 13.7553 17.0608 13.6938 17.0361C13.6323 17.0114 13.5665 16.9991 13.5003 17.0001Z" fill="black"/>
<path fill-rule="evenodd" clip-rule="evenodd" d="M4.5081 15.0001C4.44184 14.9991 4.37606 15.0114 4.31458 15.0361C4.25309 15.0608 4.19713 15.0974 4.14995 15.144C4.10276 15.1905 4.06529 15.2459 4.03972 15.3071C4.01415 15.3682 4.00098 15.4338 4.00098 15.5001C4.00098 15.5663 4.01415 15.6319 4.03972 15.693C4.06529 15.7542 4.10276 15.8096 4.14995 15.8561C4.19713 15.9027 4.25309 15.9393 4.31458 15.964C4.37606 15.9887 4.44184 16.001 4.5081 16H11.1331H15.5003C15.5665 16.001 15.6323 15.9887 15.6938 15.964C15.7553 15.9393 15.8113 15.9027 15.8584 15.8561C15.9056 15.8096 15.9431 15.7542 15.9687 15.693C15.9942 15.6319 16.0074 15.5663 16.0074 15.5001C16.0074 15.4338 15.9942 15.3682 15.9687 15.3071C15.9431 15.2459 15.9056 15.1905 15.8584 15.144C15.8113 15.0974 15.7553 15.0608 15.6938 15.0361C15.6323 15.0114 15.5665 14.9991 15.5003 15.0001H11.1331H4.5081Z" fill="black"/>
</svg>
