<svg width="21" height="24" viewBox="0 0 21 24" fill="none" xmlns="http://www.w3.org/2000/svg">
<path d="M1.8 3.75879L8 10.4505V20.8821C8 21.5605 8.65 22.0005 9.2 21.7071L12.5333 19.8738C12.8167 19.7088 13 19.3971 13 19.0488V10.4505L19.2 3.75879C19.3142 3.63066 19.3917 3.46849 19.4229 3.29237C19.4541 3.11625 19.4376 2.93393 19.3755 2.76801C19.3134 2.60209 19.2084 2.45987 19.0735 2.35899C18.9386 2.2581 18.7798 2.20298 18.6167 2.20046H2.4C2.23547 2.19939 2.07434 2.25192 1.93692 2.35143C1.79949 2.45094 1.69192 2.59296 1.62775 2.75961C1.56359 2.92626 1.54571 3.11007 1.57636 3.28788C1.60701 3.4657 1.68482 3.62955 1.8 3.75879V3.75879Z" stroke="#F8DE4A" stroke-width="2.5"/>
</svg>
