<svg width="31" height="25" viewBox="0 0 31 25" fill="none" xmlns="http://www.w3.org/2000/svg">
<path d="M23.1011 0.531824C23.0589 0.549215 22.9816 0.599216 22.9253 0.647041C22.7519 0.79052 22.0441 1.59052 21.048 2.76226C20.7175 3.15139 20.4034 3.50791 20.3495 3.55356C20.2019 3.67748 20.0636 3.72313 19.8784 3.71443C19.7378 3.70791 19.7003 3.69487 19.4331 3.55139C18.9503 3.29487 18.6737 3.17965 18.205 3.03617C17.4691 2.81443 16.6745 2.70574 15.5823 2.68182C14.0167 2.64922 12.348 2.81226 10.0722 3.22095C9.18625 3.37965 9.09015 3.35791 8.49719 2.85139C7.6675 2.14704 6.73468 1.43835 6.47219 1.31661C6.4089 1.28617 6.29875 1.24922 6.23078 1.23617C5.96359 1.18835 5.68468 1.32965 5.33781 1.69052C5.04718 1.99269 4.87609 2.19921 4.58312 2.61008C3.70656 3.834 2.80187 5.25791 1.93234 6.784C1.13547 8.184 0.547185 9.36661 0.507341 9.64922C0.474529 9.87965 0.589372 10.0231 0.91281 10.1644C1.29015 10.3275 1.46593 10.4188 2.14093 10.8014C3.23547 11.4188 3.37843 11.4905 3.85422 11.6449C4.0839 11.7188 4.29718 11.7949 4.33 11.8144C4.41437 11.8666 4.4425 11.9318 4.54797 12.3166C4.77297 13.1405 4.80109 13.3275 4.71906 13.4927C4.69562 13.5405 4.49875 13.7753 4.28078 14.0144C3.63859 14.7188 3.53781 14.8427 3.39953 15.0992C3.25422 15.3666 3.20968 15.5144 3.19797 15.7536C3.18625 16.0188 3.21672 16.171 3.32218 16.3666C3.42765 16.5579 3.55422 16.6905 3.74875 16.8144C3.98078 16.9623 4.20343 17.0275 4.50578 17.0405C4.87609 17.0557 5.19719 16.9623 5.43625 16.7731C5.53937 16.6927 6.45578 15.7927 7.48468 14.7623C8.3589 13.8883 8.36593 13.8775 8.47375 13.6775C8.56515 13.5057 8.57219 13.4818 8.57922 13.271C8.58859 13.0883 8.57922 13.0188 8.53937 12.8992C8.40344 12.4862 8.05187 12.1514 7.59953 12.0101C7.50109 11.9797 7.40265 11.9688 7.18937 11.9688C6.74172 11.9688 6.50734 12.0514 6.00578 12.3905C5.80656 12.5253 5.71047 12.5796 5.69875 12.5601C5.68234 12.5318 5.42453 11.4275 5.35187 11.0688C5.30734 10.8514 5.30734 10.8383 5.34719 10.721C5.37062 10.6536 5.79015 9.93835 6.28 9.13182C7.22922 7.56878 7.89953 6.44487 8.25578 5.82748C8.8089 4.86226 8.86984 4.77095 9.09484 4.57748C9.20734 4.47965 9.44406 4.36443 9.65031 4.30791C9.8964 4.24052 12.2003 3.91009 13.0722 3.81878C13.8761 3.73182 14.2769 3.71008 15.0761 3.71008C15.5589 3.70791 15.9925 3.71878 16.1542 3.734C17.6987 3.88617 17.6073 3.8753 17.6073 3.9253C17.6073 3.97095 17.5769 3.9753 16.8292 4.07313C16.4003 4.12965 15.8331 4.19487 15.5683 4.21878C14.7831 4.29269 14.3917 4.38182 13.9652 4.57965C13.6511 4.72748 13.5152 4.81878 13.1308 5.14052C13.0487 5.21008 12.7464 5.43835 12.4628 5.64922C11.8253 6.12313 11.6214 6.30791 11.5112 6.51226C11.4409 6.64704 11.4316 6.68182 11.4316 6.83835C11.4316 6.98835 11.4433 7.02965 11.5019 7.14052C11.5909 7.30356 11.7737 7.4753 12.0152 7.62095C12.5823 7.96443 13.0909 8.10574 13.6581 8.08182C14.0097 8.06661 14.2933 8.00139 14.7222 7.83617C15.3128 7.61008 15.4487 7.57313 16.0487 7.48182C16.7191 7.37748 17.5112 7.26661 18.2519 7.1753C18.8448 7.09922 18.962 7.10139 19.1589 7.184C19.2784 7.234 19.4753 7.38835 22.6698 9.97748C24.4628 11.4297 26.6331 13.1992 26.7222 13.284C27.1394 13.6797 27.1956 14.1014 26.8933 14.5623C26.7339 14.8079 26.448 15.0427 26.0214 15.2818C25.7823 15.4166 25.6112 15.4688 25.4612 15.4492C25.2409 15.4231 25.098 15.3296 24.4394 14.7927C23.298 13.8623 22.098 12.9144 21.9433 12.8188C21.6644 12.6449 21.4675 12.6188 21.2167 12.721C21.0292 12.7992 20.9355 12.9166 20.9355 13.0775C20.9355 13.2188 21.0527 13.3992 21.3034 13.6449C21.3644 13.7057 22.098 14.2905 22.9347 14.9449C23.8042 15.6275 24.4745 16.1666 24.5073 16.2144C24.6011 16.3492 24.6222 16.4449 24.6081 16.6731C24.5917 16.9514 24.5425 17.1166 24.3925 17.4036C24.2425 17.6949 24.0292 17.9753 23.7948 18.1992C23.5792 18.4036 23.4995 18.4449 23.3144 18.4449C23.1948 18.447 23.1503 18.434 23.0191 18.3666C22.9323 18.321 22.0581 17.6862 21.0737 16.9536C20.0894 16.2231 19.248 15.6014 19.2034 15.5731C19.1355 15.5296 19.0956 15.5231 18.9105 15.5231C18.5261 15.5231 18.3948 15.634 18.3925 15.9579C18.3925 16.1492 18.4323 16.2405 18.5777 16.3775C18.7605 16.5514 20.6003 17.9188 21.6644 18.671C22.1636 19.0231 22.2691 19.121 22.3722 19.3231C22.4448 19.4644 22.4472 19.4753 22.4448 19.7623C22.4425 20.2666 22.3066 20.621 22.0136 20.8927C21.6362 21.2427 21.0902 21.3188 20.6097 21.0883C20.4527 21.0123 20.5347 21.0731 19.2339 20.0753C17.9987 19.1297 17.237 18.5579 17.0917 18.4644C16.8269 18.297 16.3745 18.1405 16.2222 18.1644C16.023 18.197 15.8987 18.3688 15.8964 18.6166C15.8964 18.8036 15.9527 18.921 16.1167 19.0601C16.1823 19.1166 17.0589 19.7753 18.062 20.5231C19.0652 21.2688 19.9066 21.9101 19.93 21.947C20.012 22.071 19.9722 22.297 19.8175 22.571C19.6183 22.9231 19.2011 23.2231 18.6152 23.4318C18.4206 23.5014 18.1675 23.5079 17.9847 23.4492C17.8956 23.421 17.4714 23.1514 16.4964 22.5057C14.9612 21.4883 15.0081 21.521 14.4269 21.0927L14.0003 20.7775L14.0472 20.7231C14.0706 20.6927 14.2675 20.4905 14.4831 20.271C15.2191 19.5188 15.3316 19.3253 15.3034 18.8492C15.2706 18.2797 14.8558 17.8036 14.2792 17.6731C13.9487 17.5992 13.548 17.6557 13.2597 17.8166C13.0698 17.9231 13.0534 17.9383 12.6995 18.3383C12.2894 18.8036 11.8253 19.3057 11.0261 20.1514C10.6605 20.5383 10.3253 20.9057 10.2831 20.9688C10.0605 21.2927 10.0886 21.6905 10.3652 22.0949C10.6136 22.4623 11.0636 22.697 11.5183 22.697C11.762 22.697 11.912 22.6644 12.1394 22.5644C12.362 22.4666 12.5753 22.2905 13.0042 21.847C13.1542 21.6927 13.2831 21.5666 13.2925 21.5666C13.2995 21.5666 13.6066 21.7731 13.9745 22.0275C15.5425 23.1079 15.9409 23.3818 16.5409 23.7797C17.2089 24.2253 17.4128 24.3318 17.7597 24.4253C18.4886 24.6188 19.3066 24.4101 20.0402 23.8405C20.4503 23.5231 20.7503 23.1057 20.9237 22.6101C21.0316 22.3014 21.0925 22.2557 21.437 22.221C21.9691 22.1644 22.3605 21.9949 22.7144 21.671C23.1831 21.2405 23.4245 20.7449 23.5253 20.0014C23.5862 19.5557 23.6261 19.471 23.8183 19.3818C24.8144 18.9123 25.3792 18.1644 25.637 16.9623C25.6816 16.7557 25.7331 16.5579 25.7519 16.5231C25.7964 16.4427 25.8597 16.4123 26.1527 16.3253C27.2519 16.0036 27.9245 15.2796 28.1331 14.197C28.2784 13.4579 28.0581 12.9427 27.4206 12.5318C27.2612 12.4297 27.0784 12.2905 26.8675 12.1188C26.8417 12.097 26.8652 12.0557 27.0034 11.8797C27.4487 11.3036 27.7698 10.5623 27.9316 9.74052C28.0605 9.08617 28.1003 8.97748 28.2995 8.72965C28.3581 8.65791 28.6628 8.34487 28.9769 8.034C30.362 6.66661 30.498 6.51443 30.498 6.33835C30.498 6.24487 30.4558 6.13617 30.3878 6.04922C30.3409 5.99269 24.28 1.12748 23.7386 0.712259C23.4925 0.525303 23.2722 0.462259 23.1011 0.531824ZM23.4972 1.884C23.5769 1.92313 24.7441 2.79052 25.4355 3.3253C26.0495 3.80139 26.5933 4.24269 27.6855 5.15356C28.2081 5.59052 28.7542 6.03835 28.8995 6.15139C29.162 6.35139 29.1644 6.35574 29.1222 6.39922C29.0683 6.45791 28.1823 7.35791 27.7441 7.79704C27.5636 7.97965 27.4089 8.1253 27.3995 8.1253C27.3925 8.12313 26.0847 7.12313 24.4933 5.90574C22.9042 4.68617 21.5987 3.68617 21.5941 3.684C21.5847 3.6753 21.8753 3.35139 22.7027 2.44052C23.237 1.85574 23.2417 1.84922 23.3308 1.84922C23.3823 1.84922 23.455 1.86443 23.4972 1.884ZM6.33156 2.3753C6.39015 2.4253 6.68781 2.68182 6.99015 2.94487C7.2925 3.21008 7.63703 3.50139 7.75422 3.59269C7.89015 3.69921 7.98625 3.79487 8.0214 3.85791C8.07531 3.94921 8.07765 3.96226 8.04953 4.05791C8.03312 4.11443 7.96047 4.24487 7.88781 4.34704C7.81515 4.44921 7.06047 5.70791 6.21203 7.14269C5.36125 8.57748 4.53859 9.96443 4.3839 10.2253C4.10968 10.6862 4.10031 10.6992 4.05343 10.6688C4.02531 10.6514 3.50734 10.371 2.90031 10.0449C2.29328 9.71878 1.78703 9.44269 1.77062 9.43182C1.74953 9.41661 1.86203 9.19052 2.20187 8.56009C3.655 5.86226 4.81281 4.03835 6.12531 2.38617C6.16984 2.33183 6.20968 2.28617 6.21437 2.284C6.21906 2.284 6.27297 2.3253 6.33156 2.3753Z" fill="#F8DE4A"/>
<path d="M9.18848 13.9579C8.99629 13.9905 8.78066 14.0666 8.6377 14.1514C8.55566 14.2014 8.32598 14.4036 8.05645 14.6666C6.19785 16.4753 5.44551 17.3557 5.29082 17.9036C5.2416 18.0731 5.2416 18.4079 5.29082 18.5753C5.39395 18.934 5.69629 19.2731 6.05488 19.434C6.17441 19.4862 6.33145 19.5362 6.45332 19.5579L6.65488 19.5949L6.91035 19.4775L7.16582 19.3601L7.84316 18.6536C9.15801 17.284 10.5361 15.8144 10.6111 15.7079C10.7166 15.5557 10.7635 15.3971 10.7635 15.1862C10.7635 14.9666 10.7189 14.8036 10.5994 14.5905C10.44 14.3057 10.1682 14.0862 9.87285 13.9992C9.70176 13.9492 9.35957 13.9275 9.18848 13.9579Z" fill="#F8DE4A"/>
<path d="M11.3965 15.9253C11.134 15.971 10.8762 16.0992 10.6441 16.3014C10.3535 16.5536 7.93477 19.0818 7.63711 19.4449C7.44258 19.6818 7.31836 20.0101 7.31836 20.2818C7.3207 20.8862 7.81289 21.4362 8.46211 21.5601C8.88633 21.6405 9.34805 21.4731 9.73477 21.0949C9.7957 21.0384 10.2902 20.5057 10.8387 19.9144C13.0324 17.5405 13.023 17.5514 13.098 17.2623C13.2012 16.8601 13.0254 16.4231 12.6504 16.1601C12.3129 15.921 11.891 15.8427 11.3965 15.9253Z" fill="#F8DE4A"/>
</svg>
