<svg width="40" height="40" viewBox="0 0 40 40" fill="none" xmlns="http://www.w3.org/2000/svg">
<path d="M24.4552 20.361C25.0191 21.1451 26.0152 21.2483 26.6866 20.5842C27.3506 19.9424 27.4385 18.7929 26.8941 18.0172L38.8983 6.35976C40.2043 5.08742 40.3729 2.81061 39.2767 1.2872C38.1781 -0.236215 36.2225 -0.437109 34.9165 0.843621L22.9148 12.4927C22.3484 11.7338 21.3643 11.6389 20.7003 12.2863C20.0301 12.9391 19.9448 14.1082 20.5086 14.884L21.479 16.2317L4.78008 32.5503L2.55839 33.3453L0 37.221L2.00434 40L5.67975 37.8571L6.80395 35.3515L23.4882 19.0162L24.4552 20.361Z" fill="#F8DE4A"/>
</svg>
