<svg width="26" height="26" viewBox="0 0 26 26" fill="none" xmlns="http://www.w3.org/2000/svg">
<path d="M0.5 20.2924V25.5H5.70763L21.0667 10.141L15.859 4.93335L0.5 20.2924ZM25.0939 6.11374C25.2226 5.98527 25.3248 5.83267 25.3944 5.66467C25.4641 5.49668 25.5 5.31659 25.5 5.13471C25.5 4.95283 25.4641 4.77274 25.3944 4.60475C25.3248 4.43675 25.2226 4.28415 25.0939 4.15568L21.8443 0.906117C21.7159 0.77738 21.5632 0.675244 21.3953 0.605557C21.2273 0.53587 21.0472 0.5 20.8653 0.5C20.6834 0.5 20.5033 0.53587 20.3353 0.605557C20.1673 0.675244 20.0147 0.77738 19.8863 0.906117L17.3449 3.44744L22.5526 8.65507L25.0939 6.11374Z" fill="white"/>
</svg>
