<svg width="31" height="31" viewBox="0 0 31 31" fill="none" xmlns="http://www.w3.org/2000/svg">
<path d="M0.498047 11.4583V3.83333C0.498047 2.91667 0.824158 2.13167 1.47638 1.47833C2.12971 0.826111 2.91471 0.5 3.83138 0.5H27.1647C28.0814 0.5 28.8664 0.826111 29.5197 1.47833C30.1719 2.13167 30.498 2.91667 30.498 3.83333V14.7917L26.6647 10.9583C26.498 10.7917 26.3175 10.6733 26.123 10.6033C25.9286 10.5344 25.7203 10.5 25.498 10.5C25.2758 10.5 25.0675 10.5344 24.873 10.6033C24.6786 10.6733 24.498 10.7917 24.3314 10.9583L18.8314 16.4583L13.3314 10.9583C13.1647 10.7917 12.9842 10.6733 12.7897 10.6033C12.5953 10.5344 12.3869 10.5 12.1647 10.5C11.9425 10.5 11.7342 10.5344 11.5397 10.6033C11.3453 10.6733 11.1647 10.7917 10.998 10.9583L5.49805 16.4583L0.498047 11.4583ZM3.83138 30.5C2.91471 30.5 2.12971 30.1739 1.47638 29.5217C0.824158 28.8683 0.498047 28.0833 0.498047 27.1667V16.1667L4.33138 20C4.49805 20.1667 4.6786 20.2844 4.87305 20.3533C5.06749 20.4233 5.27582 20.4583 5.49805 20.4583C5.72027 20.4583 5.9286 20.4233 6.12305 20.3533C6.31749 20.2844 6.49805 20.1667 6.66471 20L12.1647 14.5L17.6647 20C17.8314 20.1667 18.0119 20.2844 18.2064 20.3533C18.4008 20.4233 18.6092 20.4583 18.8314 20.4583C19.0536 20.4583 19.2619 20.4233 19.4564 20.3533C19.6508 20.2844 19.8314 20.1667 19.998 20L25.498 14.5L30.498 19.5V27.1667C30.498 28.0833 30.1719 28.8683 29.5197 29.5217C28.8664 30.1739 28.0814 30.5 27.1647 30.5H3.83138Z" fill="#F8DE4A"/>
</svg>
