<svg width="29" height="25" viewBox="0 0 29 25" fill="none" xmlns="http://www.w3.org/2000/svg">
<path d="M18.502 15.8328C20.7111 15.8328 22.502 14.042 22.502 11.8328C22.502 9.62369 20.7111 7.83282 18.502 7.83282C16.2928 7.83282 14.502 9.62369 14.502 11.8328C14.502 14.042 16.2928 15.8328 18.502 15.8328Z" fill="#F8DE4A"/>
<path d="M18.502 1.83283C17.202 1.83283 16.102 2.03283 14.902 2.53283L14.002 0.73283C13.902 0.53283 13.702 0.33283 13.402 0.23283C13.102 0.13283 12.902 0.13283 12.602 0.33283C8.60195 2.23283 5.80195 6.43283 5.50195 10.9328C5.50195 11.5328 5.90195 11.9328 6.40195 12.0328L8.50195 12.1328C8.60195 13.9328 9.10195 15.7328 10.102 17.2328L8.90195 19.8328H1.50195C0.901953 19.8328 0.501953 20.2328 0.501953 20.8328V23.8328C0.501953 24.4328 0.901953 24.8328 1.50195 24.8328C2.10195 24.8328 2.50195 24.4328 2.50195 23.8328V21.8328H9.50195H10.502H18.502C24.002 21.8328 28.502 17.3328 28.502 11.8328C28.502 6.33283 24.002 1.83283 18.502 1.83283ZM8.60195 10.1328L7.60195 10.0328C8.10195 6.93283 10.002 4.13283 12.702 2.43283L13.102 3.33283C10.802 4.93283 9.10195 7.33283 8.60195 10.1328ZM18.502 17.8328C15.202 17.8328 12.502 15.1328 12.502 11.8328C12.502 8.53283 15.202 5.83283 18.502 5.83283C21.802 5.83283 24.502 8.53283 24.502 11.8328C24.502 15.1328 21.802 17.8328 18.502 17.8328Z" fill="#F8DE4A"/>
</svg>
