<svg width="24" height="24" viewBox="0 0 24 24" fill="none" xmlns="http://www.w3.org/2000/svg">
<path d="M22.3419 21.6467L14.3977 13.7763C15.3416 12.7127 15.958 11.3991 16.1729 9.99345C16.3877 8.58779 16.1918 7.14998 15.6087 5.85304C15.0257 4.55609 14.0803 3.45526 12.8863 2.68299C11.6923 1.91073 10.3005 1.49993 8.87856 1.50003C7.9092 1.49732 6.94893 1.68694 6.05336 2.05789C5.15778 2.42885 4.34468 2.97378 3.66115 3.66112C2.62923 4.69303 1.92649 6.00777 1.64178 7.43908C1.35708 8.87038 1.5032 10.354 2.06166 11.7022C2.62013 13.0505 3.56586 14.2029 4.77926 15.0136C5.99265 15.8244 7.41922 16.2571 8.87856 16.2571C10.6482 16.2616 12.3595 15.6249 13.6959 14.465L21.6499 22.3452C21.6952 22.3933 21.7497 22.4318 21.8101 22.4584C21.8706 22.485 21.9358 22.4991 22.0018 22.5C22.0679 22.5008 22.1334 22.4883 22.1945 22.4633C22.2556 22.4383 22.3111 22.4012 22.3576 22.3543C22.404 22.3074 22.4406 22.2516 22.465 22.1902C22.4895 22.1289 22.5013 22.0632 22.4999 21.9972C22.4984 21.9312 22.4837 21.8661 22.4565 21.8059C22.4294 21.7457 22.3904 21.6916 22.3419 21.6467ZM4.35636 13.4008C3.15734 12.2016 2.48376 10.5752 2.48376 8.8794C2.48376 7.18358 3.15734 5.5572 4.35636 4.35799C5.55551 3.15862 7.18198 2.48473 8.87798 2.48458C9.71775 2.4845 10.5493 2.64983 11.3252 2.97113C12.1011 3.29243 12.8061 3.76341 13.3999 4.35717C13.9938 4.95093 14.4649 5.65584 14.7863 6.43167C15.1078 7.2075 15.2733 8.03904 15.2733 8.87882C15.2734 9.7186 15.1081 10.5502 14.7868 11.3261C14.4655 12.1019 13.9945 12.8069 13.4008 13.4008C12.2015 14.5998 10.5752 15.2734 8.87938 15.2734C7.18358 15.2734 5.55721 14.5998 4.358 13.4008H4.35636Z" fill="#F8DE4A" stroke="#F8DE4A" stroke-width="2"/>
</svg>
