<svg width="40" height="42" viewBox="0 0 40 42" fill="none" xmlns="http://www.w3.org/2000/svg">
<path d="M37.8125 23.2309C37.662 23.1405 37.5408 23.0085 37.4635 22.8508C37.3862 22.6931 37.3561 22.5164 37.3768 22.342C37.4117 21.9063 37.4291 21.4532 37.4291 21C37.4291 20.5468 37.4117 20.0937 37.3768 19.658C37.3561 19.4836 37.3862 19.3069 37.4635 19.1492C37.5408 18.9915 37.662 18.8595 37.8125 18.7691C38.8169 18.188 39.5498 17.2323 39.8504 16.1115C40.151 14.9908 39.9948 13.7966 39.416 12.7909L36.8191 8.29418C36.5302 7.79566 36.1458 7.35905 35.6879 7.00939C35.23 6.65972 34.7075 6.40389 34.1505 6.25654C33.5935 6.10919 33.0129 6.07324 32.442 6.15073C31.8711 6.22822 31.321 6.41764 30.8235 6.70813C30.6797 6.78563 30.5173 6.82178 30.3542 6.81255C30.1912 6.80332 30.0338 6.74907 29.8997 6.65584C29.1284 6.13083 28.3185 5.66473 27.4771 5.26151C27.3245 5.1909 27.1955 5.07762 27.1058 4.93536C27.0162 4.7931 26.9696 4.62793 26.9716 4.45977C26.968 3.30066 26.5059 2.19007 25.6863 1.37045C24.8666 0.550831 23.7561 0.0887446 22.5969 0.0850677L17.4031 0.0850677C16.2412 0.0896783 15.1285 0.554454 14.3086 1.37764C13.4887 2.20083 13.0283 3.31535 13.0284 4.4772C13.0287 4.64053 12.9831 4.80066 12.8968 4.93934C12.8105 5.07801 12.687 5.18965 12.5403 5.26151C11.6913 5.66079 10.8753 6.12704 10.1003 6.65584C9.96321 6.7512 9.80165 6.80519 9.63479 6.81137C9.46794 6.81755 9.30283 6.77566 9.15909 6.6907C8.15339 6.11194 6.95918 5.95573 5.83845 6.25633C4.71772 6.55694 3.76198 7.28981 3.18091 8.29418L0.58397 12.7909C0.00520971 13.7966 -0.151003 14.9908 0.149601 16.1115C0.450206 17.2323 1.18308 18.188 2.18745 18.7691C2.33799 18.8595 2.45919 18.9915 2.53649 19.1492C2.61379 19.3069 2.64389 19.4836 2.62318 19.658C2.58832 20.0937 2.57089 20.5468 2.57089 21C2.57089 21.4532 2.58832 21.9063 2.62318 22.342C2.64389 22.5164 2.61379 22.6931 2.53649 22.8508C2.45919 23.0085 2.33799 23.1405 2.18745 23.2309C1.18308 23.812 0.450206 24.7677 0.149601 25.8885C-0.151003 27.0092 0.00520971 28.2034 0.58397 29.2091L3.18091 33.7058C3.46976 34.2043 3.85417 34.641 4.3121 34.9906C4.77003 35.3403 5.29247 35.5961 5.84947 35.7435C6.40647 35.8908 6.98708 35.9268 7.55801 35.8493C8.12893 35.7718 8.67895 35.5824 9.17652 35.2919C9.31898 35.2101 9.48215 35.1715 9.64616 35.1808C9.81017 35.19 9.96795 35.2468 10.1003 35.3442C10.8716 35.8692 11.6815 36.3353 12.5229 36.7385C12.6755 36.8091 12.8045 36.9224 12.8942 37.0646C12.9838 37.2069 13.0304 37.3721 13.0284 37.5402C13.032 38.6993 13.4941 39.8099 14.3137 40.6296C15.1334 41.4492 16.2439 41.9113 17.4031 41.9149H22.5969C23.7588 41.9103 24.8715 41.4455 25.6914 40.6224C26.5113 39.7992 26.9717 38.6847 26.9716 37.5228C26.9713 37.3595 27.0169 37.1993 27.1032 37.0607C27.1895 36.922 27.313 36.8104 27.4597 36.7385C28.3087 36.3392 29.1247 35.873 29.8997 35.3442C30.0368 35.2488 30.1984 35.1948 30.3652 35.1886C30.5321 35.1825 30.6972 35.2243 30.8409 35.3093C31.8469 35.8867 33.0407 36.0421 34.161 35.7416C35.2813 35.4411 36.237 34.7091 36.8191 33.7058L39.416 29.2091C39.9948 28.2034 40.151 27.0092 39.8504 25.8885C39.5498 24.7677 38.8169 23.812 37.8125 23.2309ZM20 31.4575C17.9317 31.4575 15.9099 30.8441 14.1901 29.6951C12.4704 28.546 11.1301 26.9128 10.3386 25.0019C9.54706 23.091 9.33997 20.9884 9.74347 18.9599C10.147 16.9313 11.143 15.068 12.6055 13.6055C14.068 12.143 15.9313 11.147 17.9599 10.7435C19.9884 10.34 22.091 10.5471 24.0019 11.3386C25.9128 12.1301 27.546 13.4704 28.6951 15.1901C29.8441 16.9099 30.4575 18.9317 30.4575 21C30.4547 23.7726 29.352 26.4309 27.3915 28.3915C25.4309 30.352 22.7726 31.4547 20 31.4575Z" fill="#F8DE4A"/>
<path d="M20 27.9716C23.8503 27.9716 26.9716 24.8503 26.9716 21C26.9716 17.1497 23.8503 14.0284 20 14.0284C16.1496 14.0284 13.0283 17.1497 13.0283 21C13.0283 24.8503 16.1496 27.9716 20 27.9716Z" fill="#F8DE4A"/>
</svg>
