<svg width="24" height="24" viewBox="0 0 24 24" fill="none" xmlns="http://www.w3.org/2000/svg">
<path d="M23.7 20.31C23.1478 17.8761 21.8469 15.6764 19.98 14.02C19.049 15.2562 17.8435 16.2592 16.4587 16.9498C15.0739 17.6405 13.5475 18.0001 12 18.0001C10.4524 18.0001 8.92608 17.6405 7.54124 16.9498C6.1564 16.2592 4.95096 15.2562 4.01997 14.02C2.15306 15.6764 0.852112 17.8761 0.299973 20.31C0.200185 20.753 0.200469 21.2127 0.300805 21.6555C0.401141 22.0984 0.599001 22.5133 0.879973 22.87C1.1614 23.2231 1.51889 23.508 1.92578 23.7037C2.33267 23.8993 2.77848 24.0006 3.22997 24H20.77C21.2215 24.0006 21.6673 23.8993 22.0742 23.7037C22.4811 23.508 22.8385 23.2231 23.12 22.87C23.4009 22.5133 23.5988 22.0984 23.6991 21.6555C23.7995 21.2127 23.7998 20.753 23.7 20.31Z" fill="#292929"/>
<path d="M12 16C16.4183 16 20 12.4183 20 8C20 3.58172 16.4183 0 12 0C7.58172 0 4 3.58172 4 8C4 12.4183 7.58172 16 12 16Z" fill="#292929"/>
</svg>
